<svg height="511pt" viewBox="0 -17 511.99463 511" width="511pt" xmlns="http://www.w3.org/2000/svg"><path d="m75.925781 221.933594 221.4375-221.4375 214.632813 214.632812-221.4375 221.4375zm0 0" fill="#7ed6f4"/><path d="m183.960938 329.96875 221.433593-221.4375 106.597657 106.597656-221.433594 221.4375zm0 0" fill="#0fa7db"/><path d="m311.757812 415.371094-214.636718-214.632813-74.535156 74.535157c-14.519532 14.523437-22.5195318 33.832031-22.5195318 54.371093 0 20.535157 7.9999998 39.847657 22.5195318 54.367188l78.402343 78.402343h163.726563zm0 0" fill="#f3eee9"/><path d="m76.253906 437.679688 24.734375 24.734374h163.726563l47.042968-47.042968-106.597656-106.597656zm0 0" fill="#e9dfda"/><path d="m0 447.425781h511.589844v29.976563h-511.589844zm0 0" fill="#145381"/></svg>
